<?xml version="1.0" standalone="no"?>
<!DOCTYPE svg PUBLIC "-//W3C//DTD SVG 20010904//EN"
 "http://www.w3.org/TR/2001/REC-SVG-20010904/DTD/svg10.dtd">
<svg version="1.0" xmlns="http://www.w3.org/2000/svg"
 width="450.000000pt" height="565.000000pt" viewBox="0 0 450.000000 565.000000"
 preserveAspectRatio="xMidYMid meet">

<g transform="translate(0.000000,565.000000) scale(0.100000,-0.100000)"
fill="#000000" stroke="none">
<path d="M0 2825 l0 -2825 2250 0 2250 0 0 2825 0 2825 -2250 0 -2250 0 0
-2825z m1040 2531 c47 -13 119 -37 161 -53 188 -74 1016 -572 1404 -844 28
-20 117 -82 199 -140 81 -57 167 -117 190 -133 126 -90 576 -429 576 -435 0
-9 -46 -43 -85 -63 -52 -27 -143 -41 -189 -30 -41 11 -100 24 -178 41 -24 5
-63 14 -88 20 -25 5 -99 22 -165 36 -127 27 -170 37 -250 55 -27 6 -69 16 -92
21 -24 5 -62 13 -85 19 -69 16 -420 92 -458 100 -98 19 -141 58 -797 713 -348
348 -633 637 -633 644 0 15 49 41 109 58 25 7 102 13 171 14 104 1 140 -3 210
-23z m-176 -725 c293 -293 497 -504 494 -512 -3 -8 -18 -15 -34 -16 -16 -2
-233 41 -483 95 -518 112 -460 85 -510 237 -51 156 -64 243 -58 384 4 99 10
141 30 197 28 81 44 114 55 114 4 0 232 -225 506 -499z m-324 -527 c36 -8 108
-23 160 -34 52 -11 158 -33 235 -50 138 -30 201 -44 440 -94 250 -52 237 -43
698 -503 l387 -389 0 -44 c0 -32 -7 -53 -23 -71 -12 -15 -139 -114 -282 -220
-143 -106 -368 -274 -500 -373 -280 -209 -290 -216 -331 -216 -60 0 -71 17
-339 525 -18 33 -90 168 -160 300 -70 132 -160 301 -200 375 -43 81 -74 154
-78 180 -33 228 -51 336 -77 460 -16 80 -30 151 -30 158 0 15 19 15 100 -4z
m2130 -459 c518 -112 536 -118 513 -167 -13 -28 -363 -295 -398 -304 -14 -3
-47 -3 -73 1 -45 6 -55 15 -305 263 -141 141 -260 265 -263 276 -6 18 9 36 31
36 6 0 228 -47 495 -105z m1197 -260 c86 -19 158 -35 159 -35 10 0 92 -135
124 -204 56 -121 74 -201 74 -336 0 -186 -55 -337 -185 -510 -52 -68 -229
-240 -249 -240 -3 0 -188 183 -412 408 -274 274 -409 416 -414 435 -16 66 4
87 281 293 143 106 278 200 300 208 66 24 153 19 322 -19z m-3043 -965 c113
-213 206 -397 206 -408 0 -38 -11 -52 -43 -52 -28 0 -438 69 -445 75 -2 2 6
94 18 206 11 111 23 293 27 402 5 165 8 197 19 182 7 -9 105 -191 218 -405z
m2349 -99 l412 -412 -39 -32 c-147 -119 -433 -326 -446 -323 -8 3 -33 8 -55
11 -49 8 -233 42 -680 125 -55 10 -165 30 -245 45 -80 14 -190 34 -245 45 -55
10 -140 26 -190 35 -152 27 -174 40 -159 87 3 11 166 139 362 285 197 147 434
324 529 395 95 71 185 136 200 144 19 10 47 14 86 11 l58 -3 412 -413z m-2545
-561 c123 -24 142 -33 142 -65 0 -34 -26 -58 -204 -190 -146 -108 -158 -115
-154 -88 3 15 22 103 44 196 29 126 42 167 54 167 8 0 61 -9 118 -20z m631
-168 c34 -55 502 -934 499 -938 -14 -12 -332 -192 -433 -244 -202 -104 -330
-140 -493 -140 -220 0 -375 81 -475 247 -58 96 -79 179 -85 330 -4 130 -4 131
21 153 72 63 819 613 861 635 57 28 60 27 105 -43z m990 -126 c310 -58 566
-107 569 -110 7 -7 20 3 -138 -108 -246 -172 -683 -458 -701 -458 -4 0 -83
143 -177 318 -203 379 -212 397 -212 416 0 24 30 46 64 46 17 0 285 -47 595
-104z"/>
</g>
</svg>
